<svg xmlns="http://www.w3.org/2000/svg" xmlns:xlink="http://www.w3.org/1999/xlink" width="120" height="120" viewBox="0 0 120 120" fill="none">
<circle cx="60" cy="60" r="60"   fill="#000000" >
</circle>
<path d="M78.4024 68.5216C78.2579 68.8253 77.9845 69.049 77.6575 69.1316L64.0986 72.848C62.9935 73.1181 63.2424 74.9387 64.3741 74.9951L98.9313 81.8495C99.5952 81.9549 100.259 82.18 100.95 82.18C88.0021 59.9535 75.0544 37.7492 62.107 15.5556C61.556 14.3772 59.564 15.2553 60.1149 16.4941L60.1149 16.4907L60.1149 16.4645L78.4045 67.5623C78.5477 67.8666 78.5469 68.2187 78.4024 68.5216Z"   fill="#FFFFFF" >
</path>
<path d="M69.1597 52.9126C69.8237 53.6296 71.1819 52.8297 70.8198 51.869C66.7524 40.3089 62.5496 28.7481 58.4521 17.188C58.3582 16.9853 58.2488 16.7901 58.1243 16.61C45.1003 38.9797 32.0577 61.335 19 83.6827L19 84.3203C19.2755 84.7031 19.6075 85.09 20.1056 85.09C20.7997 85.0071 21.1582 84.347 21.5732 83.908L57.2075 42.2605C57.5655 41.7387 58.3691 41.4086 58.9237 41.9038C62.3535 45.5373 65.6733 49.2791 69.1597 52.9126Z"   fill="#FFFFFF" >
</path>
<path d="M48.5486 57.3464C48.7669 56.5467 47.884 56.0814 47.2203 56.2729C38.8938 66.1255 30.6206 76.091 22.3203 86L101.472 86L102 85.4483L102 84.6788C101.725 84.4573 101.476 84.1834 101.113 84.1272C82.4691 80.4113 63.82 76.5602 45.1717 72.8443C44.5909 72.8143 44.0403 72.2662 44.2586 71.6583C45.7 66.899 47.1637 62.1358 48.5486 57.3464Z"   fill="#FFFFFF" >
</path>
</svg>
